<svg width="66" height="64" viewBox="0 0 66 64" fill="none" xmlns="http://www.w3.org/2000/svg">
<g clip-path="url(#clip0_10_469)">
<path d="M57.695 6.82667C55.9331 5.13781 53.6166 4.10097 51.1481 3.89636C48.6797 3.69175 46.2153 4.33229 44.1833 5.70667C50.7151 8.34376 56.051 13.1709 59.2167 19.3067C60.4386 17.361 60.9528 15.0743 60.6769 12.812C60.4011 10.5497 59.3512 8.44233 57.695 6.82667Z" fill="#5E28D0"/>
<path d="M20.9367 6.0978C18.9131 4.53936 16.3712 3.75309 13.7908 3.88737C11.2104 4.02165 8.76994 5.0672 6.93 6.82669C5.10524 8.60787 4.02451 10.9807 3.89589 13.4883C3.76727 15.9959 4.59985 18.4609 6.23333 20.4089C9.17497 14.0623 14.4028 8.97398 20.9367 6.0978Z" fill="#5E28D0"/>
<path d="M33 7.11108C27.9324 7.12124 22.9814 8.58581 18.7708 11.3202C14.5603 14.0546 11.2787 17.9365 9.33962 22.4765C7.40058 27.0166 6.89088 32.0116 7.87476 36.8321C8.85864 41.6527 11.2921 46.0829 14.8683 49.5644L10.1933 54.0978C10.0236 54.2658 9.88968 54.4647 9.7992 54.683C9.70872 54.9013 9.66347 55.1347 9.66602 55.3699C9.66858 55.6052 9.71889 55.8376 9.81408 56.054C9.90928 56.2704 10.0475 56.4665 10.2208 56.6311C10.3942 56.7957 10.5993 56.9255 10.8244 57.0133C11.0495 57.101 11.2902 57.1449 11.5328 57.1424C11.7754 57.1399 12.0151 57.0912 12.2382 56.9988C12.4614 56.9065 12.6636 56.7725 12.8333 56.6044L17.71 51.8755C22.1696 55.148 27.6156 56.907 33.2082 56.8813C38.8007 56.8556 44.2292 55.0466 48.6567 51.7333L53.68 56.6044C54.0307 56.8957 54.4819 57.0479 54.9433 57.0306C55.4047 57.0133 55.8424 56.8278 56.1689 56.5112C56.4954 56.1946 56.6867 55.7702 56.7045 55.3227C56.7223 54.8753 56.5654 54.4378 56.265 54.0978L51.3333 49.3866C54.8593 45.8845 57.2422 41.4519 58.1838 36.6433C59.1255 31.8348 58.5842 26.8638 56.6276 22.352C54.671 17.8402 51.386 13.988 47.1835 11.2772C42.9809 8.56633 38.0474 7.11722 33 7.11108ZM46.695 38.0978C46.485 38.5212 46.1106 38.8469 45.6537 39.0035C45.1967 39.16 44.6945 39.1348 44.2567 38.9333L31.1667 32.7822V17.2266C31.1667 16.7551 31.3598 16.303 31.7036 15.9696C32.0475 15.6362 32.5138 15.4489 33 15.4489C33.4862 15.4489 33.9526 15.6362 34.2964 15.9696C34.6402 16.303 34.8333 16.7551 34.8333 17.2266V30.56L45.8333 35.7333C46.0528 35.8309 46.2502 35.9697 46.4142 36.1415C46.5782 36.3133 46.7056 36.5148 46.7891 36.7345C46.8726 36.9542 46.9105 37.1878 46.9006 37.4217C46.8908 37.6556 46.8333 37.8854 46.7317 38.0978H46.695Z" fill="#5E28D0"/>
</g>
<defs>
<clipPath id="clip0_10_469">
<rect width="66" height="64" fill="white"/>
</clipPath>
</defs>
</svg>
