<svg width="16" height="16" viewBox="0 0 16 16" fill="none" xmlns="http://www.w3.org/2000/svg">
<path d="M13.7178 3.79107C13.2107 3.2875 12.3937 3.2875 11.8901 3.79107L6.23031 9.45714L4.10978 7.33839C3.60263 6.83482 2.78567 6.83482 2.2821 7.33839C1.77853 7.84553 1.77853 8.6625 2.2821 9.16607L5.1937 12.075C5.22853 12.1205 5.26692 12.1652 5.30888 12.2071C5.61781 12.5161 6.0437 12.6366 6.44192 12.5687C6.70263 12.5277 6.95353 12.4071 7.15353 12.2071C7.19549 12.1652 7.23388 12.1205 7.2687 12.0741L13.7178 5.61875C14.2214 5.11161 14.2214 4.29464 13.7178 3.79107Z" fill="#5E28D0"/>
</svg>
