<svg width="74" height="64" viewBox="0 0 74 64" fill="none" xmlns="http://www.w3.org/2000/svg">
<g clip-path="url(#clip0_10_461)">
<path d="M73.1712 61.3333C73.1712 62.0556 72.9474 62.6806 72.5 63.2083C72.0526 63.7361 71.5227 64 70.9105 64C70.2982 64 69.7683 63.7361 69.3209 63.2083C68.8735 62.6806 68.6498 62.0556 68.6498 61.3333V26.25L43.7114 41C41.8275 42.1111 39.5904 42.6667 37 42.6667C34.4096 42.6667 32.1725 42.1111 30.2886 41L3.58408 25.25C1.74727 24.1389 0.828857 22.8194 0.828857 21.2917C0.828857 19.7639 1.74727 18.4722 3.58408 17.4167L30.2886 1.66667C32.1725 0.555556 34.4096 0 37 0C39.5904 0 41.8275 0.555556 43.7114 1.66667L70.4159 17.4167C72.0173 18.3611 72.9121 19.5278 73.1005 20.9167C73.1476 20.9722 73.1712 21.0833 73.1712 21.25V61.3333ZM45.9721 46.3333L59.607 38.25V50C59.607 52.3889 57.4051 54.4306 53.0015 56.125C48.5978 57.8194 43.264 58.6667 37 58.6667C30.736 58.6667 25.4022 57.8194 20.9985 56.125C16.5949 54.4306 14.393 52.3889 14.393 50V38.25L28.0279 46.3333C29.9118 47.4444 32.9025 48 37 48C41.0975 48 44.0882 47.4444 45.9721 46.3333Z" fill="#5E28D0"/>
</g>
<defs>
<clipPath id="clip0_10_461">
<rect width="72.704" height="64" fill="white" transform="translate(0.647949)"/>
</clipPath>
</defs>
</svg>
