<svg width="32" height="32" viewBox="0 0 32 32" fill="none" xmlns="http://www.w3.org/2000/svg">
<g clip-path="url(#clip0_11_13)">
<path d="M21.6 14.4C19.3952 14.4 17.6 12.6048 17.6 10.4C17.6 8.19522 19.3952 6.40002 21.6 6.40002C23.8048 6.40002 25.6 8.19522 25.6 10.4C25.6 12.6048 23.8048 14.4 21.6 14.4ZM21.6 8.00002C20.2768 8.00002 19.2 9.07682 19.2 10.4C19.2 11.7232 20.2768 12.8 21.6 12.8C22.9232 12.8 24 11.7232 24 10.4C24 9.07682 22.9232 8.00002 21.6 8.00002Z" fill="#F1F1F1"/>
<path d="M0.799898 32C0.591898 32 0.387098 31.9184 0.233498 31.7664C0.0142977 31.5472 -0.0593023 31.2192 0.0478977 30.928C2.5103 24.1584 5.0991 20.7248 7.7407 20.7248C8.6127 20.7248 9.4271 21.0992 10.1647 21.8352C11.3295 23 11.3711 24.16 11.2015 24.928C10.6671 27.3408 7.2591 29.704 1.0735 31.9536C0.983898 31.9856 0.891098 32.0016 0.799898 32.0016V32ZM7.7423 22.3232C6.9503 22.3232 6.0175 23.0176 5.0463 24.3312C4.0911 25.6224 3.1311 27.4624 2.1855 29.8144C4.3215 28.9552 6.0383 28.0832 7.3039 27.2144C9.0111 26.0416 9.5167 25.1344 9.6399 24.5808C9.7631 24.0272 9.5647 23.4976 9.0335 22.9664C8.6015 22.5344 8.1791 22.3248 7.7407 22.3248L7.7423 22.3232Z" fill="#F1F1F1"/>
<path d="M31.2 7.41211e-05C27.048 7.41211e-05 23.3488 0.704074 20.2016 2.09287C17.608 3.23847 15.3872 4.84487 13.6 6.87047C13.2672 7.24807 12.9584 7.63047 12.672 8.01447C11.2928 8.10567 9.88158 8.65447 8.47358 9.64647C7.28158 10.4849 6.08478 11.6465 4.91358 13.0977C2.94558 15.5361 1.73598 17.9409 1.68478 18.0417C1.51038 18.3921 1.61438 18.8177 1.93118 19.0465C2.07198 19.1489 2.23678 19.1985 2.39998 19.1985C2.60478 19.1985 2.80958 19.1201 2.96478 18.9665C2.97278 18.9585 3.73758 18.2065 5.04158 17.4689C6.11678 16.8609 7.77438 16.1457 9.77918 16.0193C10.2864 17.3169 11.7376 18.8689 12.4336 19.5649C13.1296 20.2609 14.6816 21.7121 15.9792 22.2193C15.8528 24.2241 15.1376 25.8817 14.5296 26.9569C13.7904 28.2625 13.04 29.0257 13.0336 29.0321C12.7568 29.3089 12.7216 29.7473 12.9504 30.0657C13.1056 30.2801 13.3488 30.3985 13.6 30.3985C13.7216 30.3985 13.8432 30.3713 13.9568 30.3137C14.0576 30.2625 16.4624 29.0529 18.9008 27.0849C20.352 25.9137 21.5136 24.7169 22.352 23.5249C23.344 22.1153 23.8912 20.7057 23.984 19.3265C24.3664 19.0417 24.7488 18.7329 25.128 18.3985C27.1536 16.6113 28.76 14.3905 29.9056 11.7969C31.2944 8.65127 31.9984 4.95047 31.9984 0.798474V-0.00152588L31.1984 -0.00152588L31.2 7.41211e-05ZM4.97118 15.6929C6.49598 13.4801 8.82718 10.7361 11.4544 9.87367C10.416 11.6929 9.87838 13.3633 9.68478 14.4225C7.83038 14.5361 6.23198 15.0753 4.97118 15.6929ZM16.3088 27.0241C16.9264 25.7633 17.4656 24.1665 17.5776 22.3137C18.6352 22.1201 20.3072 21.5825 22.1248 20.5457C21.2608 23.1681 18.5184 25.4993 16.3072 27.0241H16.3088ZM24.0704 17.2001C20.7424 20.1361 17.296 20.8001 16.8 20.8001C16.7968 20.8001 16.4688 20.7937 15.5856 20.1713C14.9696 19.7377 14.2512 19.1201 13.5664 18.4353C12.8816 17.7505 12.264 17.0321 11.8304 16.4161C11.208 15.5329 11.2016 15.2049 11.2016 15.2017C11.2016 14.7057 11.8656 11.2593 14.8016 7.93127C18.3152 3.95047 23.6928 1.77287 30.392 1.61127C30.2304 8.31047 28.0544 13.6881 24.072 17.2017L24.0704 17.2001Z" fill="#F1F1F1"/>
</g>
<defs>
<clipPath id="clip0_11_13">
<rect width="32" height="32" fill="white"/>
</clipPath>
</defs>
</svg>
