<svg width="51" height="52" viewBox="0 0 51 52" fill="none" xmlns="http://www.w3.org/2000/svg">
<g clip-path="url(#clip0_1_331)">
<path d="M28.6378 20.2726C26.8839 22.0265 24.0277 22.0265 22.2738 20.2726C20.5199 18.5186 20.5199 15.6625 22.2738 13.9086C24.0277 12.1547 26.8839 12.1547 28.6378 13.9086C30.3917 15.6625 30.3917 18.5186 28.6378 20.2726ZM23.5466 15.1814C22.494 16.234 22.494 17.9472 23.5466 18.9998C24.5992 20.0524 26.3124 20.0524 27.365 18.9998C28.4176 17.9472 28.4176 16.234 27.365 15.1814C26.3124 14.1288 24.5992 14.1288 23.5466 15.1814Z" fill="#F1F1F1"/>
<path d="M26.0922 50.8195C25.9268 50.985 25.6989 51.083 25.4558 51.0843C25.1071 51.0843 24.7876 50.8819 24.6412 50.565C21.2149 43.221 20.5429 38.4302 22.6442 36.3288C23.3379 35.6351 24.2836 35.2851 25.4558 35.2838C27.309 35.2838 28.2649 36.1735 28.7409 36.9194C30.2352 39.2638 29.404 43.8548 26.273 50.565C26.2271 50.6617 26.166 50.7483 26.0935 50.8208L26.0922 50.8195ZM23.917 37.599C23.287 38.2291 23.0973 39.5235 23.3697 41.341C23.637 43.128 24.337 45.3554 25.4558 47.9787C26.4715 45.596 27.1436 43.5366 27.4592 41.8387C27.8843 39.5477 27.5648 38.4238 27.2225 37.8854C26.8801 37.347 26.301 37.0836 25.4558 37.0836C24.7685 37.0836 24.2658 37.2528 23.917 37.6016L23.917 37.599Z" fill="#F1F1F1"/>
<path d="M24.8194 1.18054C21.5165 4.48344 19.1338 7.98616 17.735 11.5945C16.5831 14.569 16.0944 17.6136 16.284 20.6466C16.3197 21.2117 16.3782 21.7616 16.4559 22.2949C15.4313 23.4646 14.7452 25.0238 14.4143 26.9329C14.133 28.5481 14.105 30.4242 14.3278 32.5103C14.702 36.0156 15.6527 38.8908 15.6922 39.0117C15.8322 39.4292 16.2535 39.685 16.6875 39.615C16.881 39.5845 17.0515 39.4929 17.1814 39.363C17.3443 39.2001 17.4448 38.9748 17.4461 38.7292C17.4461 38.7165 17.4563 37.5098 17.9069 35.8858C18.2785 34.5468 19.0282 32.6592 20.5224 30.9639C21.9581 31.5926 24.3472 31.6728 25.4545 31.6728C26.5618 31.6728 28.9509 31.5926 30.3866 30.9639C31.8808 32.6592 32.6305 34.5468 33.0022 35.8858C33.4527 37.5124 33.4629 38.7165 33.4629 38.7266C33.4629 39.167 33.7837 39.5438 34.219 39.615C34.513 39.6621 34.8006 39.5629 35.0004 39.363C35.0972 39.2663 35.1723 39.1479 35.2168 39.0117C35.2563 38.8908 36.2071 36.0156 36.5813 32.5103C36.804 30.4242 36.776 28.5481 36.4947 26.9329C36.1625 25.0225 35.4765 23.4659 34.4531 22.2949C34.5308 21.7641 34.5893 21.2143 34.625 20.6466C34.8146 17.6136 34.3259 14.569 33.174 11.5945C31.7765 7.98743 29.3925 4.48343 26.0896 1.18054L25.4532 0.544142L24.8168 1.18054L24.8194 1.18054ZM16.438 34.529C15.8907 31.5557 15.5624 27.5184 16.9663 24.7425C17.5874 27.0157 18.4885 28.7721 19.1771 29.7687C17.7923 31.3343 16.9497 33.0347 16.438 34.529ZM34.471 34.5239C33.9593 33.0296 33.118 31.3304 31.7332 29.7675C32.4205 28.7721 33.3229 27.0144 33.944 24.7437C35.3428 27.5172 35.0157 31.5532 34.4697 34.5251L34.471 34.5239ZM32.8303 20.5346C32.5185 25.5176 30.3051 28.7874 29.9106 29.182C29.908 29.1845 29.642 29.4403 28.4443 29.6478C27.6093 29.7929 26.5466 29.8731 25.4571 29.8731C24.3675 29.8731 23.3048 29.7929 22.4698 29.6478C21.2721 29.4403 21.0061 29.1845 21.0036 29.182C20.609 28.7874 18.3956 25.5176 18.0838 20.5346C17.7121 14.5729 20.2577 8.56273 25.4583 3.105C30.659 8.56273 33.2058 14.5716 32.8329 20.5346H32.8303Z" fill="#F1F1F1"/>
</g>
<defs>
<clipPath id="clip0_1_331">
<rect width="36" height="36" fill="white" transform="translate(0 26) rotate(-45)"/>
</clipPath>
</defs>
</svg>
