<svg width="32" height="32" viewBox="0 0 32 32" fill="none" xmlns="http://www.w3.org/2000/svg">
<g clip-path="url(#clip0_11_17)">
<path d="M3.83997 24.072C5.67488 15.953 9.59544 8.45286 15.2146 2.31201C15.3145 2.20331 15.4359 2.11653 15.5711 2.05717C15.7063 1.99781 15.8523 1.96716 16 1.96716C16.1476 1.96716 16.2936 1.99781 16.4288 2.05717C16.564 2.11653 16.6854 2.20331 16.7853 2.31201C17.0066 2.55201 17.1906 2.75467 17.336 2.91867C22.6647 8.94784 26.3874 16.2231 28.16 24.072C25.3053 24.6733 22.3733 25.068 19.3813 25.2373L16.596 30.808C16.5405 30.9186 16.4554 31.0116 16.3502 31.0766C16.2449 31.1415 16.1237 31.176 16 31.176C15.8763 31.176 15.755 31.1415 15.6497 31.0766C15.5445 31.0116 15.4594 30.9186 15.404 30.808L12.6186 25.2373C9.66724 25.0705 6.73267 24.681 3.83997 24.072ZM16 20C17.0608 20 18.0782 19.5786 18.8284 18.8284C19.5785 18.0783 20 17.0609 20 16C20 14.9391 19.5785 13.9217 18.8284 13.1716C18.0782 12.4214 17.0608 12 16 12C14.9391 12 13.9217 12.4214 13.1715 13.1716C12.4214 13.9217 12 14.9391 12 16C12 17.0609 12.4214 18.0783 13.1715 18.8284C13.9217 19.5786 14.9391 20 16 20Z" fill="#F1F1F1"/>
</g>
<defs>
<clipPath id="clip0_11_17">
<rect width="32" height="32" fill="white"/>
</clipPath>
</defs>
</svg>
