<svg width="64" height="57" viewBox="0 0 64 57" fill="none" xmlns="http://www.w3.org/2000/svg">
<path d="M11.85 25C15.1042 25 17.75 21.8609 17.75 18C17.75 14.1391 15.1042 11 11.85 11C8.59578 11 5.95 14.1391 5.95 18C5.95 21.8609 8.59578 25 11.85 25ZM53.15 25C56.4042 25 59.05 21.8609 59.05 18C59.05 14.1391 56.4042 11 53.15 11C49.8958 11 47.25 14.1391 47.25 18C47.25 21.8609 49.8958 25 53.15 25ZM56.1 28.5H50.2C48.5775 28.5 47.1117 29.2766 46.0423 30.5344C49.7575 32.9516 52.3941 37.3156 52.9656 42.5H59.05C60.6817 42.5 62 40.9359 62 39V35.5C62 31.6391 59.3542 28.5 56.1 28.5ZM32.5 28.5C38.2064 28.5 42.825 23.0203 42.825 16.25C42.825 9.47969 38.2064 4 32.5 4C26.7936 4 22.175 9.47969 22.175 16.25C22.175 23.0203 26.7936 28.5 32.5 28.5ZM39.58 32H38.8148C36.8973 33.0938 34.7678 33.75 32.5 33.75C30.2322 33.75 28.1119 33.0938 26.1852 32H25.42C19.5569 32 14.8 37.6438 14.8 44.6V47.75C14.8 50.6484 16.782 53 19.225 53H45.775C48.218 53 50.2 50.6484 50.2 47.75V44.6C50.2 37.6438 45.4431 32 39.58 32ZM18.9577 30.5344C17.8883 29.2766 16.4225 28.5 14.8 28.5H8.9C5.64578 28.5 3 31.6391 3 35.5V39C3 40.9359 4.31828 42.5 5.95 42.5H12.0252C12.6059 37.3156 15.2425 32.9516 18.9577 30.5344Z" fill="#5E28D0"/>
</svg>
